<?xml version="1.0" encoding="UTF-8"?>
<svg xmlns="http://www.w3.org/2000/svg" xmlns:xlink="http://www.w3.org/1999/xlink" width="512" height="512" viewBox="0 0 512 512"><defs><linearGradient id="a" data-name="New Gradient Swatch 1" x1="42.534" y1="537.466" x2="549.899" y2="30.101" gradientUnits="userSpaceOnUse"><stop offset="0" stop-color="#003f8a"/><stop offset="0.518" stop-color="#00d7df"/><stop offset="1" stop-color="#006df0"/></linearGradient><linearGradient id="b" x1="52.534" y1="547.466" x2="559.899" y2="40.101" xlink:href="#a"/><linearGradient id="c" x1="66.534" y1="561.466" x2="573.899" y2="54.101" xlink:href="#a"/><linearGradient id="d" x1="50.534" y1="545.466" x2="557.899" y2="38.101" xlink:href="#a"/><linearGradient id="e" x1="-25.466" y1="469.466" x2="481.899" y2="-37.899" xlink:href="#a"/><linearGradient id="f" x1="-107.466" y1="387.466" x2="399.899" y2="-119.899" xlink:href="#a"/><linearGradient id="g" x1="-39.466" y1="455.466" x2="467.899" y2="-51.899" xlink:href="#a"/></defs><g><path d="M496,424H480V148a28.031,28.031,0,0,0-28-28H368V104a7.978,7.978,0,0,0-4.65-7.26l-104-48a7.928,7.928,0,0,0-6.7,0L208,69.34V48a8,8,0,0,0-16,0V76.73L148.65,96.74A7.978,7.978,0,0,0,144,104v16H60a28.031,28.031,0,0,0-28,28V424H16a8,8,0,0,0-8,8v44a28.031,28.031,0,0,0,28,28H476a28.031,28.031,0,0,0,28-28V432A8,8,0,0,0,496,424ZM192,94.35V96a8,8,0,0,0,16,0V86.96l48-22.15L340.91,104,256,143.19,171.09,104ZM352,116.5v94.38L264,251.5V157.12Zm-192,0,88,40.62V251.5l-88-40.62ZM148.65,223.26l104,48a7.953,7.953,0,0,0,6.7,0l104-48A7.978,7.978,0,0,0,368,216V160h72V400H72V160h72v56A7.978,7.978,0,0,0,148.65,223.26ZM48,148a12.01,12.01,0,0,1,12-12h84v8H64a8,8,0,0,0-8,8V408a8,8,0,0,0,8,8H448a8,8,0,0,0,8-8V152a8,8,0,0,0-8-8H368v-8h84a12.01,12.01,0,0,1,12,12V424H48ZM285.75,440l-4,16h-51.5l-4-16ZM488,476a12.01,12.01,0,0,1-12,12H36a12.01,12.01,0,0,1-12-12V440H209.75l6.49,25.94A8,8,0,0,0,224,472h64a8,8,0,0,0,7.76-6.06L302.25,440H488Z" fill="url(#a)"/><path d="M149.128,336.533a8,8,0,0,0,0,14.934l104,40a8,8,0,0,0,5.744,0l104-40a8,8,0,0,0,0-14.934l-104-40a8,8,0,0,0-5.744,0L224,307.736V288a8,8,0,0,0-16,0v25.89ZM256,312.571,337.715,344,256,375.429,174.285,344,208,331.033V336a8,8,0,0,0,16,0V324.879Z" fill="url(#b)"/><path d="M360,296a8,8,0,0,0,8-8V248a8,8,0,0,0-16,0v40A8,8,0,0,0,360,296Z" fill="url(#c)"/><path d="M320,296a8,8,0,0,0,8-8V264a8,8,0,0,0-16,0v24A8,8,0,0,0,320,296Z" fill="url(#d)"/><path d="M144,312a8,8,0,0,0,16,0V272a8,8,0,0,0-16,0Z" fill="url(#e)"/><path d="M256,40a8,8,0,0,0,8-8V16a8,8,0,0,0-16,0V32A8,8,0,0,0,256,40Z" fill="url(#f)"/><path d="M360,72a8,8,0,0,0,8-8V48a8,8,0,0,0-16,0V64A8,8,0,0,0,360,72Z" fill="url(#g)"/></g></svg>
